<svg xmlns="http://www.w3.org/2000/svg" version="1.1" viewBox="-5.0 -10.0 110.0 135.0">
 <path d="m50.926 59.992c-2.6016 4.0703-7.1641 6.7734-12.352 6.7734-8.0859 0-14.648-6.5664-14.648-14.648 0-0.69141 0.55859-1.2539 1.25-1.2539h26.797c0.69141 0 1.25 0.5625 1.25 1.2539 0 1.9961-0.39844 3.9023-1.125 5.6367 0.85156 0.28906 1.7656 0.44141 2.7148 0.44141 4.2695 0 7.8125-3.1523 8.418-7.2578h-8.418v-2.5h9.7578c0.69141 0 1.25 0.55859 1.25 1.25 0 6.0742-4.9336 11.008-11.008 11.008-1.3672 0-2.6797-0.25-3.8867-0.70312zm-12.352 4.2734c6.2852 0 11.461-4.7812 12.086-10.898h-24.172c0.625 6.1172 5.8008 10.898 12.086 10.898zm-20.145-35.871v42.402c0 0.93359 0.37109 1.8281 1.0312 2.4883 0.66016 0.66016 1.5547 1.0312 2.4883 1.0312h34.461v2.5h-34.461c-1.5938 0-3.125-0.63281-4.2539-1.7617-1.1289-1.1289-1.7656-2.6602-1.7656-4.2578v-46.926c0-3.3242 2.6953-6.0195 6.0195-6.0195h58.172c1.5977 0 3.1289 0.63672 4.2578 1.7656 1.125 1.1289 1.7617 2.6602 1.7617 4.2539v28.426h-2.5v-28.426c0-0.93359-0.37109-1.8281-1.0312-2.4883-0.66016-0.66016-1.5547-1.0312-2.4883-1.0312h-58.172c-1.9414 0-3.5195 1.5781-3.5195 3.5195v2.0234h61.816v2.5zm20.145 5.0742c4.0391 0 7.3164 3.2812 7.3164 7.3164 0 4.043-3.2773 7.3203-7.3164 7.3203-4.0391 0-7.3164-3.2773-7.3164-7.3203 0-4.0352 3.2773-7.3164 7.3164-7.3164zm0 2.5c-2.6602 0-4.8164 2.1602-4.8164 4.8164 0 2.6602 2.1562 4.8203 4.8164 4.8203 2.6602 0 4.8203-2.1602 4.8203-4.8203 0-2.6562-2.1602-4.8164-4.8203-4.8164zm16.238-0.85156c3.1289 0 5.668 2.5391 5.668 5.668 0 3.1328-2.5391 5.6719-5.668 5.6719s-5.6719-2.5391-5.6719-5.6719c0-3.1289 2.543-5.668 5.6719-5.668zm0 2.5c-1.75 0-3.1719 1.4219-3.1719 3.168 0 1.75 1.4219 3.1719 3.1719 3.1719s3.168-1.4219 3.168-3.1719c0-1.7461-1.418-3.168-3.168-3.168zm19.602 23.266-2.4727-0.35937 0.66406-4.5859c0.089843-0.61719 0.61719-1.0703 1.2344-1.0703h6.9062c0.62109 0 1.1484 0.45312 1.2383 1.0703l0.5625 3.8711c0.95312 0.41406 1.8516 0.93359 2.6758 1.5508l3.6367-1.4531c0.57812-0.23047 1.2344 0 1.5469 0.53516l3.4531 5.9805c0.30859 0.53906 0.17969 1.2227-0.30859 1.6094l-3.0742 2.4219c0.058594 0.50781 0.089844 1.0234 0.089844 1.5469s-0.03125 1.0391-0.089844 1.5469l3.0742 2.4219c0.48828 0.38281 0.61719 1.0703 0.30859 1.6055l-3.4531 5.9805c-0.3125 0.53906-0.96875 0.76562-1.5469 0.53516l-3.6367-1.4492c-0.82422 0.61328-1.7227 1.1367-2.6758 1.5469l-0.5625 3.875c-0.089844 0.61328-0.61719 1.0703-1.2383 1.0703h-6.9062c-0.61719 0-1.1445-0.45703-1.2344-1.0703l-0.5625-3.875c-0.95312-0.41016-1.8516-0.93359-2.6758-1.5469l-3.6367 1.4492c-0.57812 0.23047-1.2383 0.003906-1.5469-0.53516l-3.4531-5.9805c-0.3125-0.53516-0.17969-1.2227 0.30859-1.6055l3.0742-2.4219c-0.058593-0.50781-0.089843-1.0234-0.089843-1.5469s0.03125-1.0391 0.089843-1.5469l-3.0742-2.4219c-0.48828-0.38672-0.62109-1.0703-0.30859-1.6094l3.4531-5.9805c0.30859-0.53516 0.96875-0.76562 1.5469-0.53516l4.3086 1.7188-0.92578 2.3242-3.3047-1.3203-2.3711 4.1055 2.7891 2.2031c0.36328 0.28125 0.53906 0.74219 0.46094 1.1953-0.10938 0.60547-0.16406 1.2305-0.16406 1.8672s0.054687 1.2578 0.16406 1.8672c0.078125 0.44922-0.097656 0.91016-0.46094 1.1953l-2.7891 2.1992 2.3711 4.1055 3.3047-1.3164c0.42578-0.17188 0.91406-0.09375 1.2656 0.20312 0.94922 0.79688 2.0391 1.4336 3.2266 1.8672 0.43359 0.15625 0.74219 0.53906 0.80859 0.99219l0.50781 3.5195h4.7422l0.51172-3.5195c0.066407-0.45312 0.375-0.83594 0.80859-0.99219 1.1875-0.43359 2.2773-1.0703 3.2266-1.8672 0.35156-0.29688 0.83984-0.375 1.2656-0.20312l3.3047 1.3164 2.3711-4.1055-2.793-2.1992c-0.35938-0.28516-0.53516-0.74609-0.45703-1.1953 0.10547-0.60938 0.16406-1.2305 0.16406-1.8672s-0.058594-1.2617-0.16406-1.8672c-0.078125-0.45312 0.097656-0.91406 0.45703-1.1953l2.793-2.2031-2.3711-4.1055-3.3047 1.3203c-0.42578 0.16797-0.91406 0.089843-1.2656-0.20312-0.94922-0.79688-2.0391-1.4336-3.2266-1.8672-0.43359-0.16016-0.74219-0.53906-0.80859-0.99609l-0.51172-3.5156h-4.7422zm2.8789 4.6523c3.5703 0 6.4648 2.8945 6.4648 6.4648 0 3.5664-2.8945 6.4648-6.4648 6.4648-3.5664 0-6.4648-2.8984-6.4648-6.4648 0-3.5703 2.8984-6.4648 6.4648-6.4648zm0 2.5c-2.1875 0-3.9648 1.7773-3.9648 3.9648s1.7773 3.9648 3.9648 3.9648c2.1914 0 3.9648-1.7773 3.9648-3.9648s-1.7734-3.9648-3.9648-3.9648z" fill-rule="evenodd"/>
<text x="0.0" y="117.5" font-size="5.0" font-weight="bold" font-family="Arbeit Regular, Helvetica, Arial-Unicode, Arial, Sans-serif" fill="#000000">Created by Ghozy Muhtarom</text><text x="0.0" y="122.5" font-size="5.0" font-weight="bold" font-family="Arbeit Regular, Helvetica, Arial-Unicode, Arial, Sans-serif" fill="#000000">from Noun Project</text></svg>